<svg id="Layer_1" data-name="Layer 1" xmlns="http://www.w3.org/2000/svg" viewBox="0 0 1626.98 724.51"><defs><style>.cls-1{fill:#c73636;}.cls-2{fill:#152128;}.cls-3{fill:#06828e;}.cls-4{fill:#efefef;}.cls-5{fill:#fff;}</style></defs><polygon class="cls-1" points="0 181.13 313.73 362.26 0 543.39 0 181.13"/><path class="cls-2" d="M185.18,681.13,498.91,862.25V500ZM463.23,800,257.32,681.13,463.23,562.27Z" transform="translate(-185.18 -137.75)"/><polygon class="cls-3" points="627.46 181.13 313.73 362.26 627.46 543.39 627.46 181.13"/><polygon class="cls-4" points="37.67 243.39 243.55 362.26 37.67 481.12 37.67 243.39"/><polygon class="cls-4" points="585.67 481.12 379.79 362.26 585.67 243.39 585.67 481.12"/><polygon class="cls-2" points="557.12 543.39 351.24 662.25 351.24 424.52 557.12 543.39"/><polygon class="cls-2" points="278.03 62.26 278.03 299.99 72.15 181.13 278.03 62.26"/><path class="cls-2" d="M498.92,500,812.64,318.87,498.92,137.75Zm242-181.36L535,437.53l0-237.75Z" transform="translate(-185.18 -137.75)"/><rect class="cls-2" x="882.66" y="100.11" width="707.29" height="262.15"/><path class="cls-5" d="M1211.88,460.86h-68.62c-16.71,0-24.51-3.79-24.51-23.62V323.62c0-19.83,7.8-23.62,24.51-23.62h68.62c16.71,0,24.5,3.79,24.5,23.62V437.24C1236.38,457.07,1228.59,460.86,1211.88,460.86Zm1.78-29.41V329.63c0-6.46-1.34-7.79-8-7.79h-55.92c-6.69,0-8,1.33-8,7.79V431.45c0,6.46,1.33,7.8,8,7.8h55.92C1212.77,439.25,1213.66,437.91,1213.66,431.45Z" transform="translate(-185.18 -137.75)"/><path class="cls-5" d="M1342,460.86h-54.14c-16.7,0-24.5-3.79-24.5-23.62v-92.9c0-4.23,1.78-6,6-6h10.92c4.23,0,6,1.79,6,6v87.11c0,6.46,1.33,7.8,8,7.8h41.44c6.68,0,8-1.34,8-7.8V344.34c0-4.23,1.78-6,6-6h10.7c4.23,0,6,1.79,6,6v92.9C1366.49,457.07,1358.69,460.86,1342,460.86Z" transform="translate(-185.18 -137.75)"/><path class="cls-5" d="M1452,454.84c0,4.24-1.78,6-6,6H1428.2c-16.71,0-24.51-3.79-24.51-23.62V360.16h-14.26c-4.23,0-6-1.78-6-6v-9.8c0-4.23,1.78-6,6-6h14.26V298.44c0-4.23,1.78-6,6-6h10.91c4.24,0,6,1.78,6,6v39.88H1446c4.24,0,6,1.79,6,6v9.8c0,4.24-1.78,6-6,6h-19.38v71.29c0,6.46,1.34,7.8,8,7.8H1446c4.24,0,6,1.78,6,6Z" transform="translate(-185.18 -137.75)"/><path class="cls-5" d="M1606.65,460.86H1538c-16.71,0-24.51-3.79-24.51-23.62V323.62c0-19.83,7.8-23.62,24.51-23.62h68.62c16.71,0,24.51,3.79,24.51,23.62V437.24C1631.16,457.07,1623.36,460.86,1606.65,460.86Zm1.78-29.41V329.63c0-6.46-1.33-7.79-8-7.79h-55.92c-6.68,0-8,1.33-8,7.79V431.45c0,6.46,1.34,7.8,8,7.8h55.92C1607.54,439.25,1608.43,437.91,1608.43,431.45Z" transform="translate(-185.18 -137.75)"/><path class="cls-5" d="M1693.09,454.84c0,4.24-1.78,6-6,6h-10.91c-4.24,0-6-1.78-6-6V359.93h-14.26c-4.23,0-6-1.78-6-6v-9.8c0-4.24,1.78-6,6-6h14.26V306.24c0-19.83,7.8-23.62,24.51-23.62h26.73c4.24,0,6,1.79,6,6v9.8c0,4.24-1.78,6-6,6h-20.27c-6.68,0-8,1.34-8,7.8V338.1h28.29c4.24,0,6,1.78,6,6v9.8c0,4.23-1.78,6-6,6h-28.29Z" transform="translate(-185.18 -137.75)"/><path class="cls-2" d="M1158.07,728.2h-84.21c-4.24,0-6-1.78-6-6V573.36c0-4.23,1.78-6,6-6h84.21c16.71,0,24.51,3.78,24.51,23.61V704.59C1182.58,724.42,1174.78,728.2,1158.07,728.2Zm1.79-29.41V597c0-6.46-1.34-7.8-8-7.8h-61V706.59h61C1159,706.59,1159.86,705.26,1159.86,698.79Z" transform="translate(-185.18 -137.75)"/><path class="cls-2" d="M1307.56,722.19c0,4.23-1.78,6-6,6h-67.73c-16.71,0-24.51-3.78-24.51-23.61V629.28c0-19.82,7.8-23.61,24.51-23.61H1288c16.71,0,24.51,3.79,24.51,23.61v27.85c0,19.83-7.8,23.62-24.51,23.62h-55.7v18c0,7.58,2,7.8,11.81,7.8h57.48c4.23,0,6,1.79,6,6Zm-17.82-70.85v-16c0-6.46-1.34-7.8-8-7.8h-41.44c-6.68,0-8,1.34-8,7.8v23.84h49.46C1288.4,659.14,1289.74,657.8,1289.74,651.34Z" transform="translate(-185.18 -137.75)"/><path class="cls-2" d="M1392.44,722.63c-1.33,4.24-3.56,5.8-8,5.8H1368.6c-4.45,0-6.68-1.56-8-5.8l-35.64-111.17c-1.12-3.79.22-5.79,4.23-5.79h12.25c4.46,0,6.69,1.56,8,5.79l27,90.68,27.4-90.68c1.34-4.23,3.57-5.79,8-5.79h11.58c4,0,5.35,2,4.23,5.79Z" transform="translate(-185.18 -137.75)"/><path class="cls-2" d="M1538.59,728.2H1470c-16.71,0-24.51-3.78-24.51-23.61V591c0-19.83,7.8-23.61,24.51-23.61h68.62c16.71,0,24.51,3.78,24.51,23.61V704.59C1563.1,724.42,1555.3,728.2,1538.59,728.2Zm1.78-29.41V597c0-6.46-1.33-7.8-8-7.8h-55.92c-6.68,0-8,1.34-8,7.8V698.79c0,6.47,1.34,7.8,8,7.8h55.92C1539.48,706.59,1540.37,705.26,1540.37,698.79Z" transform="translate(-185.18 -137.75)"/><path class="cls-2" d="M1668.7,728.2H1613v38.55c0,4.23-1.79,6-6,6h-10.91c-4.24,0-6-1.78-6-6V629.28c0-19.82,7.8-23.61,24.51-23.61h54.14c16.71,0,24.5,3.79,24.5,23.61v75.31C1693.2,724.42,1685.41,728.2,1668.7,728.2Zm1.78-29.41V635.3c0-6.46-1.34-7.8-8-7.8H1621c-6.69,0-8,1.34-8,7.8v71.29h49.46C1669.14,706.59,1670.48,705.26,1670.48,698.79Z" transform="translate(-185.18 -137.75)"/><path class="cls-2" d="M1787.66,728.2h-61.49c-4.23,0-6-1.78-6-6v-9.58c0-4.23,1.78-6,6-6h55c6.69,0,8-1.33,8-7.8V685.87c0-6.46-1.33-7.79-8-7.79h-41.66c-16.71,0-24.51-3.79-24.51-23.62V629.28c0-19.82,7.8-23.61,24.51-23.61h61c4.24,0,6,1.78,6,6v9.81c0,4.23-1.78,6-6,6h-54.8c-6.69,0-8,1.34-8,7.8v13.37c0,5.57,1.11,7.79,6,7.79h43.89c16.71,0,24.51,3.79,24.51,23.62v24.51C1812.17,724.42,1804.37,728.2,1787.66,728.2Z" transform="translate(-185.18 -137.75)"/></svg>